<?xml version="1.0" encoding="UTF-8" standalone="no"?>
<svg
   xmlns:dc="http://purl.org/dc/elements/1.1/"
   xmlns:cc="http://creativecommons.org/ns#"
   xmlns:rdf="http://www.w3.org/1999/02/22-rdf-syntax-ns#"
   xmlns:svg="http://www.w3.org/2000/svg"
   xmlns="http://www.w3.org/2000/svg"
   xmlns:sodipodi="http://sodipodi.sourceforge.net/DTD/sodipodi-0.dtd"
   xmlns:inkscape="http://www.inkscape.org/namespaces/inkscape"
   id="Layer_1"
   version="1.1"
   viewBox="0 0 318.69999 259.09332"
   xml:space="preserve"
   inkscape:version="0.48.4 r9939"
   width="100%"
   height="100%"
   sodipodi:docname="twitter.svg"><metadata
     id="metadata3068"><rdf:RDF><cc:Work
         rdf:about=""><dc:format>image/svg+xml</dc:format><dc:type
           rdf:resource="http://purl.org/dc/dcmitype/StillImage" /></cc:Work></rdf:RDF></metadata><defs
     id="defs3066" /><sodipodi:namedview
     pagecolor="#ffffff"
     bordercolor="#666666"
     borderopacity="1"
     objecttolerance="10"
     gridtolerance="10"
     guidetolerance="10"
     inkscape:pageopacity="0"
     inkscape:pageshadow="2"
     inkscape:window-width="1920"
     inkscape:window-height="1056"
     id="namedview3064"
     showgrid="false"
     fit-margin-top="0"
     fit-margin-left="0"
     fit-margin-right="0"
     fit-margin-bottom="0"
     showborder="true"
     inkscape:zoom="1.6894531"
     inkscape:cx="159.3"
     inkscape:cy="206"
     inkscape:window-x="0"
     inkscape:window-y="24"
     inkscape:window-maximized="1"
     inkscape:current-layer="Layer_1" /><style
     type="text/css"
     id="style3061">
	.st0{fill:#439CD6;}
</style><path
     class="st0"
     d="m 100.2,259.09333 c 120.3,0 186.1,-99.7 186.1,-186.100004 0,-2.8 0,-5.6 -0.2,-8.5 12.8,-9.3 23.8,-20.7 32.6,-33.9 -11.9,5.3 -24.6,8.8 -37.6,10.3 13.7,-8.2 23.9,-21 28.8,-36.1999992 -12.8,7.5999992 -26.9,12.9999992 -41.5,15.8999992 -24.8,-26.2999992 -66.2,-27.5999992 -92.5,-2.8 -17,16 -24.2,39.8 -18.9,62.5 -52.6,-2.6 -101.6,-27.5 -134.8,-68.3 -17.4,29.9 -8.5,68.1 20.2,87.3 -10.4,-0.3 -20.6,-3.1 -29.7,-8.2 0,0.3 0,0.5 0,0.8 0,31.100004 22,57.900004 52.5,64.100004 -9.6,2.6 -19.7,3 -29.5,1.1 8.6,26.6 33.1,44.9 61.1,45.4 -23.2,18.2 -51.8,28.1 -81.2,28.1 -5.2,0 -10.4,-0.3 -15.6,-0.9 29.8,19.2 64.6,29.4 100.2,29.4"
     id="XMLID_22_"
     inkscape:connector-curvature="0"
     style="fill:#439cd6" /></svg>