<?xml version="1.0" encoding="utf-8"?>
<!-- Generator: Adobe Illustrator 16.0.5, SVG Export Plug-In . SVG Version: 6.00 Build 0)  -->
<!DOCTYPE svg PUBLIC "-//W3C//DTD SVG 1.1//EN" "http://www.w3.org/Graphics/SVG/1.1/DTD/svg11.dtd">
<svg version="1.1" id="Layer_1" xmlns="http://www.w3.org/2000/svg" xmlns:xlink="http://www.w3.org/1999/xlink" x="0px" y="0px"
	 width="280.398px" height="87.673px" viewBox="0 0 280.398 87.673" enable-background="new 0 0 280.398 87.673"
	 xml:space="preserve">
<g>
	<g>
		<path fill="#FFFFFF" d="M119.191,87.31h-7.73c-0.875,0-1.586-0.71-1.586-1.586s0.711-1.586,1.586-1.586h7.73
			c0.877,0,1.586,0.71,1.586,1.586S120.068,87.31,119.191,87.31"/>
		<path fill="#FFFFFF" d="M119.191,87.479h-7.73c-0.967,0-1.752-0.786-1.752-1.755c0-0.966,0.785-1.752,1.752-1.752h7.73
			c0.967,0,1.752,0.786,1.752,1.752C120.943,86.693,120.158,87.479,119.191,87.479 M111.461,84.304
			c-0.783,0-1.418,0.636-1.418,1.419s0.635,1.42,1.418,1.42h7.73c0.782,0,1.418-0.637,1.418-1.42s-0.636-1.419-1.418-1.419H111.461z
			"/>
		<path fill="#FFFFFF" d="M119.191,87.31c-0.877,0-1.586-0.71-1.586-1.586s0.709-1.586,1.586-1.586c1.928,0,3.496-1.569,3.496-3.499
			c0-1.927-1.568-3.496-3.496-3.496c-0.877,0-1.586-0.71-1.586-1.586s0.709-1.586,1.586-1.586c3.677,0,6.668,2.992,6.668,6.668
			C125.859,84.318,122.868,87.31,119.191,87.31"/>
		<path fill="#FFFFFF" d="M119.191,87.479c-0.967,0-1.755-0.786-1.755-1.755c0-0.966,0.788-1.752,1.755-1.752
			c1.836,0,3.33-1.494,3.33-3.333c0-1.834-1.494-3.327-3.33-3.327c-0.967,0-1.755-0.79-1.755-1.755c0-0.966,0.788-1.752,1.755-1.752
			c3.77,0,6.838,3.065,6.838,6.834C126.029,84.411,122.961,87.479,119.191,87.479 M119.191,74.137c-0.783,0-1.42,0.637-1.42,1.42
			s0.637,1.42,1.42,1.42c2.02,0,3.664,1.642,3.664,3.662c0,2.023-1.645,3.668-3.664,3.668c-0.783,0-1.42,0.634-1.42,1.417
			s0.637,1.42,1.42,1.42c3.585,0,6.502-2.916,6.502-6.505C125.693,77.055,122.776,74.137,119.191,74.137"/>
		<path fill="#FFFFFF" d="M119.191,77.143h-7.73c-0.875,0-1.586-0.71-1.586-1.586s0.711-1.586,1.586-1.586h7.73
			c0.877,0,1.586,0.71,1.586,1.586S120.068,77.143,119.191,77.143"/>
		<path fill="#FFFFFF" d="M119.191,77.312h-7.73c-0.967,0-1.752-0.79-1.752-1.755c0-0.966,0.785-1.752,1.752-1.752h7.73
			c0.967,0,1.752,0.786,1.752,1.752C120.943,76.522,120.158,77.312,119.191,77.312 M111.461,74.137c-0.781,0-1.418,0.637-1.418,1.42
			s0.637,1.42,1.418,1.42h7.73c0.782,0,1.418-0.637,1.418-1.42s-0.636-1.42-1.418-1.42H111.461z"/>
		<path fill="#FFFFFF" d="M119.191,77.143c-0.877,0-1.586-0.71-1.586-1.586s0.709-1.586,1.586-1.586
			c1.237,0,2.246-1.008,2.246-2.245s-1.009-2.245-2.246-2.245c-0.877,0-1.586-0.71-1.586-1.586c0-0.876,0.709-1.586,1.586-1.586
			c2.986,0,5.418,2.431,5.418,5.417S122.178,77.143,119.191,77.143"/>
		<path fill="#FFFFFF" d="M119.191,77.309c-0.967,0-1.755-0.786-1.755-1.752c0-0.966,0.788-1.755,1.755-1.755
			c1.145,0,2.076-0.93,2.076-2.077c0-1.146-0.932-2.076-2.076-2.076c-0.967,0-1.755-0.786-1.755-1.755
			c0-0.966,0.788-1.752,1.755-1.752c3.079,0,5.584,2.504,5.584,5.583S122.271,77.309,119.191,77.309 M119.191,66.477
			c-0.783,0-1.42,0.633-1.42,1.417c0,0.783,0.637,1.419,1.42,1.419c1.33,0,2.412,1.082,2.412,2.412s-1.082,2.412-2.412,2.412
			c-0.783,0-1.42,0.637-1.42,1.42s0.637,1.42,1.42,1.42c2.893,0,5.248-2.355,5.248-5.251S122.084,66.477,119.191,66.477"/>
		<path fill="#FFFFFF" d="M119.191,69.48h-7.73c-0.875,0-1.586-0.71-1.586-1.586c0-0.876,0.711-1.586,1.586-1.586h7.73
			c0.877,0,1.586,0.71,1.586,1.586C120.777,68.77,120.068,69.48,119.191,69.48"/>
		<path fill="#FFFFFF" d="M119.191,69.649h-7.73c-0.967,0-1.752-0.786-1.752-1.755c0-0.966,0.785-1.752,1.752-1.752h7.73
			c0.967,0,1.752,0.786,1.752,1.752C120.943,68.863,120.158,69.649,119.191,69.649 M111.461,66.477
			c-0.781,0-1.418,0.633-1.418,1.417c0,0.783,0.637,1.419,1.418,1.419h7.73c0.782,0,1.418-0.636,1.418-1.419
			c0-0.784-0.636-1.417-1.418-1.417H111.461z"/>
		<path fill="#FFFFFF" d="M111.461,87.29c-0.875,0-1.586-0.71-1.586-1.586v-17.81c0-0.876,0.711-1.586,1.586-1.586
			c0.877,0,1.586,0.71,1.586,1.586v17.81C113.047,86.58,112.338,87.29,111.461,87.29"/>
		<path fill="#FFFFFF" d="M111.461,87.459c-0.967,0-1.752-0.789-1.752-1.755v-17.81c0-0.966,0.785-1.752,1.752-1.752
			c0.969,0,1.756,0.786,1.756,1.752v17.81C113.217,86.67,112.43,87.459,111.461,87.459 M111.461,66.477
			c-0.781,0-1.418,0.633-1.418,1.417v17.81c0,0.783,0.637,1.419,1.418,1.419c0.783,0,1.42-0.636,1.42-1.419v-17.81
			C112.881,67.11,112.244,66.477,111.461,66.477"/>
		<path fill="#FFFFFF" d="M131.081,87.648c-0.874,0-1.586-0.71-1.586-1.586V68.227c0-0.876,0.712-1.589,1.586-1.589
			c0.878,0,1.587,0.712,1.587,1.589v17.835C132.668,86.938,131.959,87.648,131.081,87.648"/>
		<path fill="#FFFFFF" d="M131.081,87.814c-0.966,0-1.753-0.786-1.753-1.753V68.227c0-0.97,0.787-1.755,1.753-1.755
			c0.968,0,1.754,0.786,1.754,1.755v17.835C132.835,87.028,132.049,87.814,131.081,87.814 M131.081,66.806
			c-0.782,0-1.419,0.637-1.419,1.42v17.835c0,0.781,0.637,1.417,1.419,1.417c0.783,0,1.421-0.637,1.421-1.417V68.227
			C132.502,67.443,131.864,66.806,131.081,66.806"/>
		<path fill="#FFFFFF" d="M151.828,87.583c-0.488,0-0.972-0.226-1.281-0.651l-7.528-10.316c-0.515-0.707-0.36-1.702,0.348-2.217
			c0.706-0.516,1.7-0.361,2.216,0.346l7.526,10.317c0.518,0.707,0.362,1.702-0.346,2.217
			C152.48,87.484,152.152,87.583,151.828,87.583"/>
		<path fill="#FFFFFF" d="M151.828,87.752c-0.558,0-1.088-0.271-1.417-0.722l-7.528-10.316c-0.275-0.38-0.386-0.843-0.314-1.305
			c0.072-0.462,0.321-0.871,0.699-1.147c0.303-0.22,0.658-0.335,1.031-0.335c0.56,0,1.09,0.268,1.419,0.719l7.526,10.316
			c0.275,0.38,0.389,0.843,0.315,1.304c-0.071,0.465-0.32,0.871-0.698,1.147C152.56,87.634,152.202,87.752,151.828,87.752
			 M144.299,74.261c-0.302,0-0.59,0.096-0.834,0.273c-0.306,0.222-0.508,0.552-0.565,0.926c-0.06,0.375,0.03,0.75,0.255,1.057
			l7.527,10.316c0.267,0.367,0.694,0.583,1.146,0.583c0.303,0,0.593-0.095,0.836-0.273c0.307-0.223,0.506-0.552,0.565-0.927
			c0.058-0.375-0.032-0.749-0.256-1.056l-7.525-10.317C145.181,74.48,144.751,74.261,144.299,74.261"/>
		<path fill="#FFFFFF" d="M138.423,83.233c-0.401,0-0.804-0.149-1.112-0.457c-0.625-0.614-0.633-1.62-0.018-2.242l13.246-13.45
			c0.614-0.622,1.619-0.631,2.243-0.014c0.623,0.615,0.632,1.617,0.017,2.243L139.555,82.76
			C139.242,83.075,138.832,83.233,138.423,83.233"/>
		<path fill="#FFFFFF" d="M138.423,83.402c-0.464,0-0.899-0.181-1.229-0.504c-0.689-0.679-0.697-1.792-0.02-2.481L150.42,66.97
			c0.332-0.338,0.775-0.524,1.25-0.524c0.463,0,0.899,0.18,1.229,0.504c0.688,0.679,0.698,1.792,0.02,2.479l-13.247,13.449
			C139.34,83.216,138.896,83.402,138.423,83.402 M151.67,66.781c-0.384,0-0.743,0.149-1.013,0.422L137.413,80.65
			c-0.55,0.558-0.542,1.459,0.015,2.009c0.268,0.265,0.621,0.409,0.995,0.409c0.384,0,0.742-0.15,1.012-0.423l13.246-13.449
			c0.548-0.558,0.543-1.457-0.016-2.005C152.397,66.924,152.044,66.781,151.67,66.781"/>
		<path fill="#FFFFFF" d="M138.423,87.673c-0.874,0-1.587-0.71-1.587-1.586V68.204c0-0.876,0.713-1.586,1.587-1.586
			c0.876,0,1.586,0.71,1.586,1.586v17.883C140.009,86.963,139.299,87.673,138.423,87.673"/>
		<path fill="#FFFFFF" d="M138.423,87.84c-0.966,0-1.754-0.786-1.754-1.753V68.204c0-0.966,0.788-1.755,1.754-1.755
			c0.968,0,1.753,0.789,1.753,1.755v17.883C140.176,87.054,139.391,87.84,138.423,87.84 M138.423,66.784
			c-0.782,0-1.418,0.637-1.418,1.419v17.883c0,0.783,0.636,1.42,1.418,1.42c0.783,0,1.42-0.637,1.42-1.42V68.204
			C139.843,67.421,139.206,66.784,138.423,66.784"/>
		<path fill="#FFFFFF" d="M168.941,87.268h-12.037c-0.875,0-1.586-0.709-1.586-1.586c0-0.876,0.711-1.586,1.586-1.586h12.037
			c0.877,0,1.586,0.71,1.586,1.586C170.527,86.558,169.818,87.268,168.941,87.268"/>
		<path fill="#FFFFFF" d="M168.941,87.437h-12.037c-0.966,0-1.752-0.789-1.752-1.755c0-0.966,0.786-1.752,1.752-1.752h12.037
			c0.967,0,1.753,0.786,1.753,1.752C170.694,86.648,169.908,87.437,168.941,87.437 M156.904,84.262
			c-0.781,0-1.418,0.636-1.418,1.419c0,0.784,0.637,1.42,1.418,1.42h12.037c0.782,0,1.418-0.637,1.418-1.42
			c0-0.783-0.636-1.419-1.418-1.419H156.904z"/>
		<path fill="#FFFFFF" d="M168.94,69.497h-12.036c-0.875,0-1.586-0.712-1.586-1.586c0-0.876,0.711-1.586,1.586-1.586h12.036
			c0.875,0,1.586,0.71,1.586,1.586C170.526,68.784,169.815,69.497,168.94,69.497"/>
		<path fill="#FFFFFF" d="M168.94,69.663h-12.036c-0.966,0-1.753-0.785-1.753-1.752c0-0.969,0.787-1.755,1.753-1.755h12.036
			c0.968,0,1.753,0.786,1.753,1.755C170.693,68.877,169.908,69.663,168.94,69.663 M156.904,66.491c-0.782,0-1.419,0.636-1.419,1.419
			c0,0.781,0.637,1.417,1.419,1.417h12.036c0.783,0,1.419-0.636,1.419-1.417c0-0.783-0.636-1.419-1.419-1.419H156.904z"/>
		<path fill="#FFFFFF" d="M156.93,87.276c-0.877,0-1.589-0.71-1.589-1.586V67.911c0-0.876,0.712-1.586,1.589-1.586
			c0.874,0,1.586,0.71,1.586,1.586V85.69C158.516,86.566,157.804,87.276,156.93,87.276"/>
		<path fill="#FFFFFF" d="M156.93,87.442c-0.968,0-1.755-0.786-1.755-1.752V67.911c0-0.969,0.787-1.755,1.755-1.755
			c0.965,0,1.753,0.786,1.753,1.755V85.69C158.683,86.656,157.895,87.442,156.93,87.442 M156.93,66.491
			c-0.783,0-1.421,0.636-1.421,1.419V85.69c0,0.783,0.638,1.419,1.421,1.419c0.781,0,1.418-0.636,1.418-1.419V67.911
			C158.348,67.127,157.711,66.491,156.93,66.491"/>
		<path fill="#FFFFFF" d="M167.39,78.444h-10.462c-0.875,0-1.587-0.709-1.587-1.586c0-0.876,0.712-1.585,1.587-1.585h10.462
			c0.877,0,1.587,0.709,1.587,1.585C168.977,77.734,168.267,78.444,167.39,78.444"/>
		<path fill="#FFFFFF" d="M167.39,78.61h-10.46c-0.968,0-1.755-0.786-1.755-1.752c0-0.966,0.787-1.755,1.755-1.755h10.46
			c0.967,0,1.754,0.789,1.754,1.755C169.144,77.825,168.356,78.61,167.39,78.61 M156.93,75.438c-0.783,0-1.421,0.637-1.421,1.419
			c0,0.78,0.638,1.417,1.421,1.417h10.46c0.782,0,1.419-0.637,1.419-1.417c0-0.783-0.637-1.419-1.419-1.419H156.93z"/>
	</g>
	<path fill="#FFFFFF" d="M21.609,42.869c-5.479,0-10.936-2.102-15.057-6.224c-1.238-1.239-1.238-3.248,0-4.488
		c1.239-1.237,3.248-1.237,4.488,0c5.307,5.308,13.771,5.846,19.688,1.249c1.384-1.074,3.375-0.823,4.451,0.56
		c1.074,1.383,0.825,3.375-0.56,4.452C30.781,41.401,26.188,42.869,21.609,42.869"/>
	<path fill="#FFFFFF" d="M21.609,43.204c-5.785,0-11.217-2.245-15.293-6.321c-0.662-0.663-1.025-1.544-1.025-2.479
		c0-0.938,0.363-1.821,1.025-2.482s1.543-1.025,2.48-1.025c0.936,0,1.816,0.364,2.48,1.025c2.752,2.755,6.423,4.271,10.33,4.271
		c3.266,0,6.348-1.053,8.916-3.048c0.621-0.484,1.363-0.738,2.15-0.738c1.091,0,2.102,0.493,2.771,1.355
		c0.574,0.741,0.826,1.66,0.71,2.589s-0.589,1.758-1.329,2.333C31.02,41.641,26.449,43.204,21.609,43.204 M8.797,31.564
		c-0.758,0-1.471,0.295-2.008,0.831c-0.535,0.538-0.831,1.248-0.831,2.009c0,0.758,0.296,1.47,0.831,2.005
		c3.949,3.949,9.215,6.125,14.82,6.125c4.688,0,9.117-1.516,12.809-4.381c0.597-0.465,0.979-1.135,1.072-1.888
		c0.096-0.751-0.109-1.496-0.574-2.093c-0.541-0.699-1.357-1.099-2.242-1.099c-0.637,0-1.237,0.206-1.738,0.597
		c-2.688,2.088-5.914,3.192-9.328,3.192c-4.088,0-7.925-1.589-10.805-4.468C10.268,31.859,9.556,31.564,8.797,31.564"/>
	<path fill="#FFFFFF" d="M236.913,24.771c-1.752,0-3.173-1.42-3.173-3.172c0-8.226-6.69-14.917-14.918-14.917
		c-1.752,0-3.173-1.423-3.173-3.175s1.421-3.172,3.173-3.172c11.725,0,21.264,9.542,21.264,21.264
		C240.086,23.352,238.667,24.771,236.913,24.771"/>
	<path fill="#FFFFFF" d="M236.913,25.106c-1.933,0-3.505-1.572-3.505-3.507c0-8.04-6.544-14.584-14.586-14.584
		c-1.934,0-3.506-1.572-3.506-3.507c0-1.932,1.572-3.507,3.506-3.507c11.909,0,21.598,9.691,21.598,21.599
		C240.42,23.535,238.848,25.106,236.913,25.106 M218.822,0.67c-1.564,0-2.839,1.273-2.839,2.837c0,1.566,1.274,2.84,2.839,2.84
		c8.411,0,15.253,6.843,15.253,15.252c0,1.566,1.274,2.84,2.838,2.84c1.566,0,2.84-1.273,2.84-2.84
		C239.753,10.06,230.363,0.67,218.822,0.67"/>
	<path fill="#FFFFFF" d="M218.84,42.877c-1.752,0.003-3.173-1.415-3.176-3.167s1.415-3.175,3.166-3.178
		c8.229-0.011,14.91-6.713,14.896-14.942c-0.002-1.752,1.416-3.175,3.17-3.178c1.752-0.003,3.173,1.417,3.175,3.169
		C240.09,33.307,230.567,42.86,218.84,42.877"/>
	<path fill="#FFFFFF" d="M218.836,43.212c-1.932,0-3.503-1.569-3.506-3.501s1.567-3.507,3.5-3.51
		c3.89-0.009,7.549-1.532,10.302-4.293c2.754-2.764,4.268-6.426,4.263-10.316c-0.004-0.935,0.359-1.817,1.021-2.482
		c0.661-0.662,1.542-1.028,2.478-1.028c1.938,0,3.509,1.569,3.513,3.499c0.02,11.911-9.655,21.616-21.563,21.633H218.836z
		 M236.901,18.749c-0.764,0-1.477,0.298-2.012,0.833c-0.535,0.539-0.829,1.251-0.828,2.009c0.005,4.068-1.574,7.899-4.456,10.787
		c-2.879,2.891-6.705,4.486-10.772,4.491c-1.567,0.002-2.839,1.276-2.835,2.842c0.003,1.563,1.275,2.834,2.838,2.834v0.332
		l0.004-0.332c11.543-0.02,20.915-9.424,20.898-20.963C239.735,20.019,238.462,18.749,236.901,18.749"/>
	<path fill="#FFFFFF" d="M218.822,42.863c-11.725,0-21.266-9.539-21.266-21.264c0-1.75,1.421-3.172,3.176-3.172
		c1.749,0,3.171,1.422,3.171,3.172c0,8.226,6.691,14.92,14.919,14.92c1.753,0,3.174,1.42,3.174,3.172
		C221.996,41.443,220.575,42.863,218.822,42.863"/>
	<path fill="#FFFFFF" d="M218.822,43.198c-11.909,0-21.598-9.688-21.598-21.599c0-1.932,1.572-3.507,3.508-3.507
		c1.932,0,3.505,1.575,3.505,3.507c0,8.043,6.543,14.587,14.585,14.587c1.934,0,3.506,1.572,3.506,3.505
		C222.328,41.627,220.756,43.198,218.822,43.198 M200.732,18.763c-1.566,0-2.841,1.273-2.841,2.836
		c0,11.542,9.39,20.932,20.931,20.932c1.565,0,2.839-1.274,2.839-2.84c0-1.564-1.273-2.837-2.839-2.837
		c-8.411,0-15.254-6.843-15.254-15.255C203.568,20.036,202.296,18.763,200.732,18.763"/>
	<path fill="#FFFFFF" d="M190.848,42.503c-1.302,0-2.522-0.809-2.985-2.107l-12.67-35.442c-0.59-1.648,0.271-3.465,1.918-4.054
		c1.651-0.589,3.466,0.271,4.056,1.918l12.671,35.442c0.589,1.651-0.271,3.465-1.922,4.057
		C191.562,42.44,191.202,42.503,190.848,42.503"/>
	<path fill="#FFFFFF" d="M190.848,42.835c-1.477,0-2.804-0.935-3.303-2.327L174.877,5.065c-0.315-0.882-0.267-1.834,0.132-2.679
		c0.402-0.848,1.108-1.487,1.99-1.803c0.381-0.135,0.777-0.206,1.181-0.206c1.479,0,2.805,0.935,3.301,2.33l12.671,35.44
		c0.648,1.819-0.304,3.832-2.123,4.482C191.647,42.768,191.25,42.835,190.848,42.835 M178.18,1.048
		c-0.325,0-0.646,0.057-0.956,0.167c-0.713,0.253-1.284,0.772-1.61,1.457c-0.322,0.685-0.362,1.457-0.107,2.169l12.67,35.442
		c0.404,1.126,1.478,1.885,2.672,1.885c0.325,0,0.646-0.056,0.955-0.167c1.475-0.526,2.245-2.155,1.717-3.628L180.853,2.93
		C180.45,1.806,179.376,1.048,178.18,1.048"/>
	<path fill="#FFFFFF" d="M165.208,42.503c-0.36,0-0.728-0.062-1.087-0.195c-1.646-0.6-2.493-2.422-1.893-4.068l12.936-35.443
		c0.602-1.646,2.422-2.493,4.068-1.893c1.647,0.603,2.493,2.422,1.894,4.07l-12.937,35.44
		C167.719,41.703,166.504,42.503,165.208,42.503"/>
	<path fill="#FFFFFF" d="M165.208,42.835c-0.41,0-0.813-0.071-1.203-0.211c-1.814-0.665-2.754-2.682-2.092-4.499l12.938-35.44
		c0.502-1.381,1.827-2.308,3.293-2.308c0.41,0,0.814,0.073,1.203,0.214c1.816,0.662,2.756,2.682,2.094,4.496l-12.939,35.443
		C168.001,41.908,166.676,42.835,165.208,42.835 M178.145,1.048c-1.186,0-2.258,0.75-2.664,1.865l-12.937,35.443
		c-0.538,1.471,0.223,3.102,1.691,3.64c0.315,0.112,0.642,0.172,0.973,0.172c1.188,0,2.26-0.75,2.667-1.865L180.812,4.86
		c0.537-1.471-0.224-3.104-1.692-3.64C178.804,1.104,178.478,1.048,178.145,1.048"/>
	<path fill="#FFFFFF" d="M165.127,42.503c-1.302,0-2.522-0.809-2.988-2.107L149.471,4.953c-0.589-1.648,0.271-3.465,1.919-4.054
		c1.65-0.589,3.468,0.271,4.056,1.918l12.671,35.442c0.589,1.651-0.271,3.465-1.922,4.057
		C165.842,42.44,165.481,42.503,165.127,42.503"/>
	<path fill="#FFFFFF" d="M165.127,42.835c-1.477,0-2.805-0.935-3.302-2.327L149.156,5.065c-0.315-0.882-0.27-1.834,0.135-2.679
		c0.398-0.848,1.106-1.487,1.987-1.803c0.381-0.135,0.777-0.206,1.182-0.206c1.477,0,2.802,0.935,3.301,2.33l12.67,35.44
		c0.648,1.819-0.303,3.832-2.123,4.482C165.928,42.768,165.529,42.835,165.127,42.835 M152.46,1.048
		c-0.326,0-0.646,0.057-0.955,0.167c-0.716,0.253-1.288,0.772-1.612,1.457c-0.323,0.685-0.361,1.457-0.107,2.169l12.67,35.442
		c0.404,1.126,1.478,1.885,2.672,1.885c0.325,0,0.646-0.056,0.955-0.167c1.475-0.526,2.245-2.155,1.717-3.628L155.131,2.93
		C154.728,1.806,153.654,1.048,152.46,1.048"/>
	<path fill="#FFFFFF" d="M139.468,42.503c-0.362,0-0.728-0.062-1.089-0.195c-1.645-0.6-2.492-2.422-1.891-4.068l12.936-35.443
		c0.602-1.646,2.422-2.493,4.069-1.893c1.646,0.603,2.492,2.422,1.891,4.07l-12.936,35.44
		C141.979,41.703,140.763,42.503,139.468,42.503"/>
	<path fill="#FFFFFF" d="M139.468,42.835c-0.409,0-0.813-0.071-1.201-0.211c-1.817-0.665-2.755-2.682-2.093-4.499l12.936-35.44
		c0.505-1.381,1.829-2.308,3.295-2.308c0.41,0,0.814,0.073,1.203,0.214c1.816,0.662,2.754,2.682,2.092,4.496l-12.937,35.443
		C142.259,41.908,140.935,42.835,139.468,42.835 M152.404,1.048c-1.187,0-2.258,0.75-2.667,1.865l-12.936,35.443
		c-0.535,1.471,0.224,3.102,1.692,3.64c0.316,0.112,0.643,0.172,0.974,0.172c1.188,0,2.258-0.75,2.667-1.865L155.071,4.86
		c0.534-1.471-0.224-3.104-1.693-3.64C153.063,1.104,152.735,1.048,152.404,1.048"/>
	<path fill="#FFFFFF" d="M139.387,42.503c-1.303,0-2.523-0.809-2.988-2.107L123.73,4.953c-0.59-1.648,0.27-3.465,1.919-4.054
		s3.466,0.271,4.056,1.918l12.668,35.442c0.592,1.651-0.268,3.465-1.918,4.057C140.102,42.44,139.741,42.503,139.387,42.503"/>
	<path fill="#FFFFFF" d="M139.387,42.835c-1.478,0-2.805-0.935-3.303-2.327L123.416,5.065c-0.316-0.882-0.27-1.834,0.133-2.679
		c0.4-0.848,1.106-1.487,1.988-1.803c0.381-0.135,0.779-0.206,1.182-0.206c1.477,0,2.803,0.935,3.302,2.33l12.67,35.44
		c0.649,1.819-0.302,3.832-2.124,4.482C140.186,42.768,139.788,42.835,139.387,42.835 M126.719,1.048
		c-0.324,0-0.647,0.057-0.956,0.167c-0.715,0.253-1.286,0.772-1.61,1.457s-0.361,1.457-0.107,2.169l12.67,35.442
		c0.402,1.126,1.476,1.885,2.672,1.885c0.324,0,0.646-0.056,0.956-0.167c1.473-0.526,2.242-2.155,1.716-3.628L129.39,2.93
		C128.986,1.806,127.913,1.048,126.719,1.048"/>
	<path fill="#FFFFFF" d="M8.797,37.575c-0.812,0-1.625-0.31-2.244-0.93c-8.291-8.293-8.291-21.785,0-30.079
		c1.239-1.237,3.248-1.237,4.488,0c1.237,1.239,1.237,3.251,0,4.488c-5.819,5.817-5.819,15.286,0,21.103
		c1.237,1.24,1.237,3.249,0,4.488C10.42,37.266,9.609,37.575,8.797,37.575"/>
	<path fill="#FFFFFF" d="M8.797,37.908c-0.938,0-1.818-0.363-2.48-1.025c-8.422-8.424-8.422-22.126,0-30.55
		c0.662-0.662,1.543-1.028,2.48-1.028c0.936,0,1.816,0.366,2.48,1.028c1.366,1.366,1.366,3.592,0,4.958
		c-2.751,2.752-4.267,6.415-4.267,10.316c0,3.899,1.516,7.564,4.267,10.313c1.366,1.369,1.366,3.592,0,4.961
		C10.613,37.544,9.732,37.908,8.797,37.908 M8.797,5.972c-0.758,0-1.471,0.299-2.008,0.834c-8.162,8.161-8.162,21.441,0,29.603
		c0.537,0.535,1.25,0.831,2.008,0.831s1.471-0.296,2.006-0.831c1.108-1.107,1.108-2.907,0-4.014
		c-2.875-2.876-4.461-6.708-4.461-10.787c0-4.08,1.586-7.911,4.461-10.787c1.108-1.11,1.108-2.91,0-4.014
		C10.268,6.271,9.556,5.972,8.797,5.972"/>
	<path fill="#FFFFFF" d="M8.797,11.984c-0.812,0-1.625-0.31-2.244-0.929c-1.238-1.237-1.238-3.249,0-4.488
		c7.575-7.573,19.65-8.327,28.09-1.752c1.383,1.076,1.631,3.068,0.555,4.452s-3.07,1.628-4.453,0.552
		c-5.92-4.609-14.391-4.077-19.703,1.237C10.42,11.674,9.609,11.984,8.797,11.984"/>
	<path fill="#FFFFFF" d="M8.797,12.319c-0.938,0-1.818-0.363-2.48-1.028C5.654,10.629,5.291,9.75,5.291,8.812
		c0-0.938,0.363-1.817,1.025-2.479c4.079-4.079,9.51-6.325,15.293-6.325c4.848,0,9.426,1.572,13.239,4.542
		c0.739,0.575,1.21,1.403,1.325,2.333c0.117,0.93-0.137,1.848-0.715,2.589c-0.667,0.859-1.677,1.352-2.768,1.352
		c-0.785,0-1.531-0.256-2.154-0.74c-2.571-2.003-5.658-3.063-8.93-3.063c-3.907,0-7.577,1.519-10.33,4.271
		C10.613,11.956,9.732,12.319,8.797,12.319 M21.609,0.679c-5.605,0-10.867,2.174-14.82,6.127C6.254,7.341,5.958,8.054,5.958,8.812
		s0.296,1.471,0.831,2.009c0.537,0.535,1.25,0.828,2.008,0.828s1.471-0.293,2.006-0.828c2.881-2.882,6.719-4.471,10.805-4.471
		c3.42,0,6.651,1.11,9.342,3.203c0.504,0.395,1.107,0.6,1.742,0.6c0.883,0,1.7-0.397,2.241-1.092
		c0.466-0.601,0.671-1.344,0.577-2.096c-0.093-0.752-0.475-1.423-1.072-1.888C30.744,2.197,26.307,0.679,21.609,0.679"/>
	<path fill="#FFFFFF" d="M61.307,42.877c-1.752,0.003-3.175-1.415-3.178-3.167c-0.002-1.752,1.416-3.175,3.168-3.178
		c8.227-0.011,14.91-6.713,14.896-14.942c-0.003-1.752,1.414-3.175,3.168-3.178c1.75-0.003,3.174,1.417,3.176,3.169
		C82.557,33.307,73.032,42.86,61.307,42.877"/>
	<path fill="#FFFFFF" d="M61.302,43.212c-1.931,0-3.505-1.569-3.508-3.501s1.569-3.507,3.501-3.51
		c3.891-0.009,7.549-1.532,10.303-4.293c2.753-2.764,4.266-6.426,4.26-10.316c0-0.935,0.363-1.817,1.024-2.482
		c0.661-0.662,1.541-1.028,2.478-1.028c1.938,0,3.511,1.569,3.514,3.499c0.018,11.911-9.654,21.616-21.566,21.633H61.302z
		 M79.365,18.749c-0.762,0-1.474,0.298-2.009,0.833c-0.535,0.539-0.831,1.251-0.828,2.009c0.006,4.068-1.577,7.899-4.457,10.787
		c-2.88,2.891-6.706,4.486-10.772,4.491c-1.566,0.002-2.837,1.276-2.834,2.842c0.002,1.563,1.274,2.834,2.837,2.834v0.332
		l0.003-0.332c11.541-0.02,20.917-9.424,20.898-20.963C82.201,20.019,80.929,18.749,79.365,18.749"/>
	<path fill="#FFFFFF" d="M276.891,42.587c-1.752,0-3.172-1.422-3.172-3.175V3.8c0-1.752,1.42-3.172,3.172-3.172
		s3.173,1.42,3.173,3.172v35.612C280.063,41.165,278.643,42.587,276.891,42.587"/>
	<path fill="#FFFFFF" d="M276.891,42.919c-1.932,0-3.507-1.572-3.507-3.507V3.8c0-1.932,1.575-3.504,3.507-3.504
		c1.935,0,3.508,1.572,3.508,3.504v35.612C280.398,41.348,278.825,42.919,276.891,42.919 M276.891,0.964
		c-1.566,0-2.838,1.273-2.838,2.836v35.612c0,1.566,1.271,2.84,2.838,2.84c1.564,0,2.839-1.274,2.839-2.84V3.8
		C279.729,2.237,278.455,0.964,276.891,0.964"/>
	<path fill="#FFFFFF" d="M276.895,42.587c-0.954,0-1.896-0.428-2.521-1.245L247.077,5.733c-1.064-1.391-0.803-3.383,0.589-4.451
		c1.389-1.065,3.382-0.8,4.447,0.589l27.297,35.612c1.064,1.392,0.803,3.383-0.589,4.448
		C278.246,42.373,277.566,42.587,276.895,42.587"/>
	<path fill="#FFFFFF" d="M276.895,42.919c-1.103,0-2.117-0.501-2.786-1.375L246.812,5.936c-1.178-1.535-0.885-3.741,0.648-4.919
		c0.618-0.473,1.356-0.721,2.132-0.721c1.102,0,2.116,0.499,2.786,1.372l27.296,35.612c1.176,1.535,0.884,3.741-0.649,4.919
		C278.406,42.669,277.67,42.919,276.895,42.919 M249.593,0.964c-0.628,0-1.226,0.202-1.724,0.586
		c-1.242,0.952-1.48,2.735-0.527,3.978l27.297,35.612c0.541,0.708,1.363,1.113,2.256,1.113c0.628,0,1.224-0.204,1.724-0.586
		c1.242-0.952,1.478-2.736,0.525-3.978L251.846,2.076C251.306,1.369,250.484,0.964,249.593,0.964"/>
	<path fill="#FFFFFF" d="M249.595,42.587c-1.752,0-3.171-1.422-3.171-3.175V3.8c0-1.752,1.419-3.172,3.171-3.172
		c1.751,0,3.174,1.42,3.174,3.172v35.612C252.769,41.165,251.346,42.587,249.595,42.587"/>
	<path fill="#FFFFFF" d="M249.595,42.919c-1.933,0-3.506-1.572-3.506-3.507V3.8c0-1.932,1.573-3.504,3.506-3.504
		c1.934,0,3.508,1.572,3.508,3.504v35.612C253.103,41.348,251.528,42.919,249.595,42.919 M249.595,0.964
		c-1.565,0-2.839,1.273-2.839,2.836v35.612c0,1.566,1.273,2.84,2.839,2.84c1.564,0,2.837-1.274,2.837-2.84V3.8
		C252.432,2.237,251.159,0.964,249.595,0.964"/>
	<path fill="#FFFFFF" d="M113.898,42.503c-0.361,0-0.73-0.062-1.088-0.195c-1.646-0.6-2.493-2.422-1.893-4.068l12.936-35.443
		c0.601-1.646,2.422-2.493,4.068-1.893c1.646,0.603,2.493,2.422,1.893,4.07l-12.936,35.44
		C116.408,41.703,115.192,42.503,113.898,42.503"/>
	<path fill="#FFFFFF" d="M113.898,42.835c-0.41,0-0.814-0.071-1.203-0.211c-1.816-0.665-2.756-2.682-2.092-4.499l12.938-35.44
		c0.503-1.381,1.827-2.308,3.293-2.308c0.41,0,0.814,0.073,1.203,0.214c1.817,0.662,2.756,2.682,2.092,4.496l-12.936,35.443
		C116.688,41.908,115.365,42.835,113.898,42.835 M126.834,1.048c-1.188,0-2.259,0.75-2.664,1.865l-12.938,35.443
		c-0.537,1.471,0.223,3.102,1.693,3.64c0.312,0.112,0.64,0.172,0.973,0.172c1.186,0,2.259-0.75,2.664-1.865L129.501,4.86
		c0.536-1.471-0.224-3.104-1.692-3.64C127.494,1.104,127.165,1.048,126.834,1.048"/>
	<path fill="#FFFFFF" d="M113.816,42.503c-1.302,0-2.524-0.809-2.986-2.107L98.162,4.953c-0.592-1.648,0.269-3.465,1.918-4.054
		c1.65-0.589,3.465,0.271,4.055,1.918l12.669,35.442c0.591,1.651-0.269,3.465-1.919,4.057
		C114.532,42.44,114.172,42.503,113.816,42.503"/>
	<path fill="#FFFFFF" d="M113.816,42.835c-1.477,0-2.805-0.935-3.302-2.327L97.846,5.065c-0.315-0.882-0.268-1.834,0.133-2.679
		c0.399-0.848,1.107-1.487,1.988-1.803c0.382-0.135,0.779-0.206,1.182-0.206c1.479,0,2.805,0.935,3.301,2.33l12.669,35.44
		c0.651,1.819-0.3,3.832-2.121,4.482C114.616,42.768,114.219,42.835,113.816,42.835 M101.148,1.048
		c-0.325,0-0.646,0.057-0.956,0.167c-0.713,0.253-1.284,0.772-1.61,1.457c-0.323,0.685-0.361,1.457-0.106,2.169l12.669,35.442
		c0.402,1.126,1.477,1.885,2.672,1.885c0.324,0,0.646-0.056,0.955-0.167c1.473-0.526,2.244-2.155,1.719-3.628L103.82,2.93
		C103.418,1.806,102.344,1.048,101.148,1.048"/>
	<path fill="#FFFFFF" d="M87.854,42.503c-0.361,0-0.73-0.062-1.088-0.195c-1.646-0.6-2.493-2.422-1.893-4.068L97.809,2.797
		c0.602-1.646,2.422-2.493,4.068-1.893c1.646,0.603,2.494,2.422,1.894,4.07l-12.937,35.44
		C90.363,41.703,89.147,42.503,87.854,42.503"/>
	<path fill="#FFFFFF" d="M87.854,42.835c-0.41,0-0.814-0.071-1.203-0.211c-1.816-0.665-2.756-2.682-2.092-4.499l12.938-35.44
		c0.504-1.381,1.827-2.308,3.293-2.308c0.41,0,0.814,0.073,1.203,0.214c1.817,0.662,2.756,2.682,2.092,4.496L91.147,40.531
		C90.644,41.908,89.321,42.835,87.854,42.835 M100.789,1.048c-1.188,0-2.259,0.75-2.664,1.865L85.188,38.356
		c-0.538,1.471,0.222,3.102,1.692,3.64c0.313,0.112,0.641,0.172,0.973,0.172c1.186,0,2.26-0.75,2.665-1.865L103.457,4.86
		c0.535-1.471-0.225-3.104-1.694-3.64C101.449,1.104,101.121,1.048,100.789,1.048"/>
	<path fill="#FFFFFF" d="M200.732,24.771c-1.755,0-3.176-1.42-3.176-3.172c0-11.722,9.541-21.264,21.266-21.264
		c1.753,0,3.174,1.42,3.174,3.172s-1.421,3.175-3.174,3.175c-8.228,0-14.919,6.691-14.919,14.917
		C203.903,23.352,202.481,24.771,200.732,24.771"/>
	<path fill="#FFFFFF" d="M200.732,25.106c-1.936,0-3.51-1.572-3.51-3.507c0-11.908,9.69-21.599,21.6-21.599
		c1.934,0,3.506,1.575,3.506,3.507c0,1.936-1.572,3.507-3.506,3.507c-8.042,0-14.585,6.544-14.585,14.584
		C204.237,23.535,202.664,25.106,200.732,25.106 M218.822,0.67c-11.541,0-20.931,9.39-20.931,20.929c0,1.566,1.274,2.84,2.841,2.84
		c1.563,0,2.836-1.273,2.836-2.84c0-8.409,6.843-15.252,15.254-15.252c1.565,0,2.839-1.273,2.839-2.84
		C221.661,1.944,220.388,0.67,218.822,0.67"/>
	<path fill="#FFFFFF" d="M79.379,24.771c-1.752,0-3.172-1.42-3.172-3.172c0-8.226-6.692-14.917-14.92-14.917
		c-1.752,0-3.172-1.423-3.172-3.175s1.42-3.172,3.172-3.172c11.726,0,21.264,9.542,21.264,21.264
		C82.551,23.352,81.131,24.771,79.379,24.771"/>
	<path fill="#FFFFFF" d="M79.379,25.106c-1.933,0-3.508-1.572-3.508-3.507c0-8.04-6.541-14.584-14.584-14.584
		c-1.933,0-3.508-1.572-3.508-3.507C57.779,1.575,59.354,0,61.287,0c11.91,0,21.6,9.691,21.6,21.599
		C82.887,23.535,81.314,25.106,79.379,25.106 M61.287,0.67c-1.563,0-2.836,1.273-2.836,2.837c0,1.566,1.272,2.84,2.836,2.84
		c8.412,0,15.256,6.843,15.256,15.252c0,1.566,1.273,2.84,2.836,2.84c1.565,0,2.838-1.273,2.838-2.84
		C82.217,10.06,72.829,0.67,61.287,0.67"/>
	<path fill="#FFFFFF" d="M43.195,24.771c-1.752,0-3.172-1.42-3.172-3.172c0-11.722,9.539-21.264,21.264-21.264
		c1.752,0,3.172,1.42,3.172,3.172s-1.42,3.175-3.172,3.175c-8.227,0-14.92,6.691-14.92,14.917
		C46.367,23.352,44.947,24.771,43.195,24.771"/>
	<path fill="#FFFFFF" d="M43.195,25.106c-1.932,0-3.508-1.572-3.508-3.507C39.688,9.691,49.379,0,61.287,0
		c1.934,0,3.508,1.575,3.508,3.507c0,1.936-1.574,3.507-3.508,3.507c-8.041,0-14.584,6.544-14.584,14.584
		C46.703,23.535,45.129,25.106,43.195,25.106 M61.287,0.67c-11.54,0-20.928,9.39-20.928,20.929c0,1.566,1.272,2.84,2.836,2.84
		c1.566,0,2.838-1.273,2.838-2.84c0-8.409,6.844-15.252,15.254-15.252c1.566,0,2.838-1.273,2.838-2.84
		C64.125,1.944,62.854,0.67,61.287,0.67"/>
	<path fill="#FFFFFF" d="M61.287,42.863c-11.725,0-21.264-9.539-21.264-21.264c0-1.75,1.42-3.172,3.172-3.172
		s3.172,1.422,3.172,3.172c0,8.226,6.693,14.92,14.92,14.92c1.752,0,3.172,1.42,3.172,3.172
		C64.459,41.443,63.039,42.863,61.287,42.863"/>
	<path fill="#FFFFFF" d="M61.287,43.198c-11.908,0-21.6-9.688-21.6-21.599c0-1.932,1.576-3.507,3.508-3.507
		c1.936,0,3.508,1.575,3.508,3.507c0,8.043,6.543,14.587,14.584,14.587c1.934,0,3.508,1.572,3.508,3.505
		C64.795,41.627,63.221,43.198,61.287,43.198 M43.195,18.763c-1.563,0-2.836,1.273-2.836,2.836c0,11.542,9.388,20.932,20.928,20.932
		c1.566,0,2.838-1.274,2.838-2.84c0-1.564-1.271-2.837-2.838-2.837c-8.41,0-15.254-6.843-15.254-15.255
		C46.033,20.036,44.762,18.763,43.195,18.763"/>
</g>
</svg>
